<?xml version="1.0" encoding="UTF-8"?>
<svg width="164px" height="113px" viewBox="0 0 164 113" version="1.1" xmlns="http://www.w3.org/2000/svg" xmlns:xlink="http://www.w3.org/1999/xlink">
    <title>Group 13</title>
    <g id="Page-1" stroke="none" stroke-width="1" fill="none" fill-rule="evenodd">
        <g id="Group-13" transform="translate(-0.000300, 0.289600)">
            <path d="M131.4496,112.321 C130.2866,112.27 129.1236,112.219 127.9286,112.166 L127.9286,99.842 C128.0706,99.842 128.2206,99.847 128.3706,99.842 C129.9896,99.787 131.6116,99.774 133.2266,99.662 C134.4336,99.578 135.5996,99.245 136.6916,98.701 C138.7026,97.698 139.8176,95.995 140.2246,93.862 C140.4926,92.462 140.6296,91.017 140.6376,89.591 C140.6716,83.857 140.6246,78.122 140.6246,72.388 C140.6246,70.596 140.6516,68.804 140.7126,67.014 C140.7686,65.389 141.0286,63.793 141.6456,62.274 C142.7156,59.636 144.7306,57.981 147.2786,56.892 C147.8876,56.632 148.5136,56.409 149.0286,56.209 C147.9816,55.698 146.8296,55.237 145.7826,54.604 C143.0726,52.967 141.5916,50.457 141.0426,47.398 C140.8096,46.104 140.6816,44.775 140.6736,43.461 C140.6366,37.171 140.6606,30.88 140.6546,24.59 C140.6526,23.083 140.6546,21.574 140.5916,20.069 C140.5156,18.267 140.1456,16.544 138.9056,15.132 C137.8836,13.971 136.5336,13.363 135.1006,12.891 C133.3826,12.326 131.5966,12.197 129.8136,12.042 C129.5736,12.021 129.3326,11.999 129.0926,11.972 C128.4066,11.896 128.4066,11.895 128.4066,11.222 C128.4066,7.607 128.4076,3.992 128.4056,0.378 C128.4056,0.252 128.3886,0.126 128.3786,0 L129.4896,0 C129.5746,0.028 129.6596,0.077 129.7456,0.08 C132.9676,0.229 136.1946,0.314 139.4106,0.543 C141.1026,0.663 142.8076,0.911 144.4526,1.318 C147.4636,2.063 149.9386,3.681 151.6566,6.329 C153.1696,8.661 153.7626,11.276 153.8976,14.002 C153.9996,16.06 154.0136,18.124 154.0166,20.186 C154.0306,27.473 154.0156,34.76 154.0286,42.047 C154.0306,43.282 154.0536,44.523 154.1826,45.75 C154.3966,47.801 155.5316,49.06 157.5376,49.548 C158.2506,49.721 158.9916,49.798 159.7236,49.874 C161.8146,50.091 163.3596,51.446 163.7906,53.477 C163.8676,53.841 163.9266,54.209 163.9946,54.576 L163.9946,56.369 C163.9086,56.804 163.8046,57.235 163.7396,57.672 C163.3436,60.297 161.5836,61.637 159.4286,62.13 C158.5606,62.328 157.6926,62.563 156.8616,62.879 C155.5366,63.381 154.6466,64.358 154.3916,65.753 C154.1836,66.892 154.0886,68.064 154.0726,69.223 C154.0226,72.822 154.0416,76.423 154.0206,80.023 C154.0016,83.068 153.9986,86.113 153.9286,89.156 C153.8416,92.95 153.7386,96.745 153.5536,100.535 C153.4396,102.88 152.5856,104.984 151.0366,106.78 C149.5256,108.532 147.5916,109.61 145.4326,110.352 C141.7056,111.633 137.8656,112.237 133.9356,112.323 C133.1066,112.323 132.2786,112.323 131.4496,112.321 M49.0655,27.3381 C49.1485,27.1931 49.3045,27.1331 49.4165,27.0961 C49.8875,26.9381 50.1325,26.9371 50.1325,26.9371 C55.3275,26.9301 60.5225,26.9231 65.7185,26.9171 C67.2225,26.9501 68.3365,26.9521 69.0915,26.9041 C69.2655,26.8931 69.6705,26.8641 69.9215,27.1151 C70.1895,27.3851 70.1395,27.8331 70.1305,27.9371 C70.0605,28.7761 70.0775,39.0421 70.1305,53.3871 C70.1305,66.0981 70.1305,78.8091 70.1295,91.5191 C70.1135,91.7361 70.0965,91.9541 70.0795,92.1711 C70.0525,92.2701 69.9775,92.4851 69.7745,92.6641 C69.6605,92.7661 69.5445,92.8221 69.4625,92.8531 C69.4615,92.8531 68.9825,92.8531 68.9815,92.8531 C66.1635,92.8531 63.3445,92.8481 60.5265,92.8541 C58.3215,92.8581 56.1155,92.8811 53.9095,92.8832277 C52.5445,92.8851 51.1785,92.8631 49.8125,92.8531 C49.2635,92.8491 49.0305,92.6181 49.0345,92.0651 C49.0465,90.4711 49.0705,88.8781 49.0705,87.2851 C49.0695,85.5631 49.0385,83.8411 49.0365,82.1201 C49.0305,78.1911 49.0405,74.2631 49.0335,70.3351 C49.0245,65.8241 48.9895,61.3121 48.9925,56.8011 C48.9945,53.9701 49.0645,51.1391 49.0685,48.3081 C49.0695,47.5371 49.0705,46.7911 49.0695,45.9061 C49.0675,39.2881 49.0675,35.9791 49.0335,35.6701 C49.0335,35.6701 48.8295,33.7821 49.0095,27.5511 C49.0105,27.5151 49.0145,27.4271 49.0655,27.3381 M89.7167,59.5016 C92.2207,62.0106 94.7257,64.5176 97.2337,67.0216 C100.6077,70.3916 103.9837,73.7606 107.3597,77.1286 C110.7447,80.5056 114.1337,83.8776 117.5147,87.2586 C119.0937,88.8386 120.6557,90.4366 122.2277,92.0236 C122.4507,92.2486 122.8127,92.4116 122.4997,92.87785 L121.8287,92.87785 C114.3137,92.87785 106.7977,92.8786 99.2827,92.8766 C97.5607,92.8756 95.8397,92.8576 94.1177,92.8546 C93.7177,92.8546 93.3787,92.7666 93.0787,92.4656 C89.6577,89.0236 86.2347,85.5846 82.7987,82.1576 C80.5327,79.8976 78.2447,77.6596 75.9677,75.4106 C75.7047,75.1506 75.4667,74.8626 75.1887,74.6196 C74.3477,73.8816 74.1927,72.9466 74.2367,71.8786 C74.3027,70.2886 74.2627,68.6946 74.2607,67.1026 C74.2607,66.4636 74.2317,65.8236 74.2317,65.1836 C74.2299556,58.5646 74.2287,51.9466 74.2337,45.3286 C74.2347,45.0036 74.2767,44.6776 74.3297,44.3566 C74.3427,44.2786 74.4767,44.2216 74.5547,44.1546 C75.4107,43.2816 76.2597,42.4016 77.1237,41.5366 C80.6327,38.0226 84.1397,34.5066 87.6607,31.0036 C88.9307,29.7406 90.2397,28.5166 91.5237,27.2676 C91.7417,27.0566 91.9677,26.9676 92.2787,26.9686 C96.5047,26.9796 100.7317,26.9786 104.9577,26.9756 C109.9527,26.9706 114.9477,26.9616 119.9427,26.9546 L121.1627,26.9546 L121.1627,26.9546 L121.1967,27.0746 L121.1967,27.0746 C120.9687,27.3166 120.7477,27.5656 120.5117,27.7996 C118.2057,30.0806 115.8857,32.3486 113.5917,34.6416 C110.8947,37.3376 108.2207,40.0556 105.5317,42.7596 C105.0097,43.2836 104.4557,43.7746 103.9327,44.2976 C99.9887,48.2426 96.0467,52.1886 92.1087,56.1396 L91.1715519,57.0927481 L91.1715519,57.0927481 L89.3117,59.0146 L89.3117,59.0146 C89.4457,59.1776 89.5687,59.3536 89.7167,59.5016 Z M35.284,0.0001 C35.309,0.1211 35.357,0.2421 35.357,0.3631 C35.361,4.1491 35.359,7.9361 35.358,11.7221 C35.358,11.7501 35.349,11.7771 35.332,11.8701 C34.409,11.9541 33.469,12.0411 32.528,12.1241 C30.521,12.3011 28.562,12.6561 26.759,13.6211 C24.701,14.7231 23.58,16.4911 23.348,18.7591 C23.173,20.4661 23.175,22.1941 23.164,23.9131 C23.143,27.1291 23.179,30.3461 23.174,33.5631 C23.169,37.1061 23.17,40.6501 23.119,44.1931 C23.085,46.4691 22.715,48.6911 21.66,50.7441 C20.371,53.2521 18.291,54.8281 15.68,55.7731 C15.443,55.8591 15.226,56.0041 14.93,56.1581 C15.801,56.5711 16.57,56.9161 17.322,57.2961 C20.608,58.9571 22.493,61.6291 22.889,65.2801 C23.078,67.0271 23.127,68.7961 23.145,70.5561 C23.187,74.5261 23.172,78.4971 23.176,82.4681 C23.179,85.3291 23.156,88.1891 23.186,91.0501 C23.2,92.4161 23.404,93.7661 23.877,95.0611 C24.747,97.4401 26.505,98.7961 28.902,99.4121 C30.288,99.7681 31.703,99.8681 33.128,99.8701 C34.049,99.8721 34.97,99.8701 35.915,99.8701 L35.915,112.0861 C34.994,112.1401 34.076,112.1991 33.157,112.2451 C30.066,112.4021 26.988,112.2501 23.942,111.6991 C20.985,111.1651 18.082,110.4041 15.469,108.8701 C12.334,107.0291 10.614,104.2321 10.349,100.6021 C10.215,98.7601 10.19,96.9101 10.158,95.0621 C10.086,90.9101 10.037,86.7571 9.983,82.6041 C9.957,80.5551 9.94,78.5071 9.917,76.4581 C9.89,74.0261 9.902,71.5921 9.815,69.1621 C9.772,67.9751 9.614,66.7801 9.386,65.6131 C8.991,63.5921 7.472,62.3511 5.373,62.1661 C4.711,62.1071 4.049,61.9971 3.402,61.8441 C1.46,61.3841 0.429,60.0821 0.11,58.1621 C0.054,57.8271 0.036,57.4851 0,57.1461 C0.001,56.4301 0.002,55.7131 0.003,54.9971 C0.037,54.6441 0.06,54.2891 0.106,53.9371 C0.374,51.8741 1.39,50.7071 3.414,50.2101 C4.17,50.0241 4.95,49.9391 5.717,49.7961 C8.017,49.3661 9.367,48.1001 9.707,45.8531 C9.882,44.6951 9.851,43.5001 9.855,42.3221 C9.884,33.7411 9.876,25.1601 9.937,16.5801 C9.949,14.8541 10.084,13.1091 10.369,11.4081 C11.226,6.2981 14.135,2.9211 19.146,1.4401 C21.895,0.6271 24.741,0.5121 27.576,0.3581 C29.917,0.2311 32.262,0.1741 34.605,0.0821 C34.661,0.0801 34.716,0.0281 34.772,0.0001 L35.284,0.0001 Z" id="Fill-2" fill="#FEFEFE"></path>
            <g id="Group-5" transform="translate(0.000000, 0.000100)"></g>
        </g>
    </g>
</svg>