<?xml version="1.0" encoding="UTF-8"?>
<svg width="92px" height="100px" viewBox="0 0 92 100" version="1.1" xmlns="http://www.w3.org/2000/svg" xmlns:xlink="http://www.w3.org/1999/xlink">
    <title>SvgjsG1591</title>
    <g id="Page-1" stroke="none" stroke-width="1" fill="none" fill-rule="evenodd">
        <g id="protic-2" transform="translate(-40.000000, -29.000000)" fill="#000000" fill-rule="nonzero">
            <g id="SvgjsG1591" transform="translate(40.000000, 29.000000)">
                <path d="M67.0175316,46.9222847 C66.3001622,42.6953972 61.9959459,39.8774723 57.6917295,40.2297129 C54.822252,33.5371411 47.2898733,30.3669755 40.1161794,32.8326599 C37.2467018,33.8893817 35.0945937,36.0028254 33.6598549,38.4685098 L33.3011702,38.4685098 C28.6382691,38.4685098 25.0514222,41.990916 24.6927375,46.570044 C24.6927375,46.570044 24.6927375,46.570044 24.6927375,46.9222847 L24.6927375,47.2745253 C19.312467,47.9790065 15.3669354,52.9103752 16.0843048,58.5462251 C16.8016742,63.4775938 21.1058905,67 26.1274763,67 L64.8654235,67 C70.2456939,67 74.9085949,62.4208719 74.9085949,57.1372626 C75.6259643,51.8536533 72.0391174,47.6267659 67.0175316,46.9222847 Z M65.5827928,63.4775938 L26.8448456,63.4775938 C23.2579987,63.4775938 20.0298364,60.6596688 20.0298364,56.785022 C20.0298364,53.2626158 22.899314,50.0924502 26.8448456,50.0924502 L29.3556385,50.0924502 L28.6382691,47.9790065 C28.6382691,47.6267659 28.6382691,46.9222847 28.6382691,46.570044 C28.6382691,43.7521191 30.7903773,41.6386754 33.6598549,41.6386754 C33.6598549,41.6386754 33.6598549,41.6386754 34.0185396,41.6386754 C34.3772243,41.6386754 34.735909,41.6386754 34.735909,41.990916 L36.1706478,41.990916 L36.5293324,40.9341941 C38.6814406,36.0028254 44.7790805,33.8893817 49.8006662,36.0028254 C52.6701438,37.4117879 54.4635673,39.5252316 55.1809367,42.3431566 L55.5396213,44.1043597 L57.3330448,43.7521191 C57.6917295,43.3998785 58.4090989,43.3998785 58.7677836,43.3998785 C61.6372612,43.3998785 63.7893694,45.5133222 63.7893694,47.9790065 C63.7893694,47.9790065 63.7893694,47.9790065 63.7893694,48.3312471 L63.7893694,50.0924502 L65.5827928,50.0924502 C69.1696398,50.0924502 72.3978021,52.9103752 72.3978021,56.785022 C72.3978021,60.3074282 69.5283245,63.1253532 65.5827928,63.4775938 C65.9414775,63.1253532 65.9414775,63.1253532 65.5827928,63.4775938 L65.5827928,63.4775938 Z" id="Shape"></path>
                <path d="M7.04997132,21.4285714 L7.04997132,45 L20.5188844,45 L22.2911098,44.2857143 C22.6455549,43.5714286 22.6455549,42.5 23,41.7857143 L10.5944221,41.7857143 L10.5944221,21.4285714 C14.8477631,20.3571429 17.6833238,15.7142857 16.6199885,11.0714286 C15.5566533,7.5 12.7210926,5 9.17664181,5 C4.21441066,5.35714286 0.669959847,9.28571429 1.02440493,13.9285714 C1.02440493,17.5 3.5055205,20.3571429 7.04997132,21.4285714 Z M8.82219673,8.21428571 C11.6577574,8.21428571 13.7844279,10.3571429 13.7844279,12.8571429 C13.7844279,12.8571429 13.7844279,12.8571429 13.7844279,13.2142857 C13.7844279,16.0714286 11.6577574,18.2142857 9.17664181,18.2142857 C9.17664181,18.2142857 9.17664181,18.2142857 8.82219673,18.2142857 C5.98663607,18.2142857 3.85996558,16.0714286 3.85996558,13.2142857 C3.85996558,13.2142857 3.85996558,13.2142857 3.85996558,13.2142857 C3.85996558,10.7142857 5.98663607,8.57142857 8.82219673,8.21428571 C8.82219673,8.21428571 8.82219673,8.21428571 8.82219673,8.21428571 L8.82219673,8.21428571 Z" id="Shape"></path>
                <path d="M10.4376685,81.8473282 L10.4376685,55.1603053 L14.0834082,55.1603053 C14.0834082,54.1068702 14.4479822,53.0534351 14.8125562,52 L6.79192871,52 L6.79192871,81.8473282 C2.05246704,82.9007634 -0.864124755,87.1145038 0.229597169,91.6793893 C0.958745118,95.5419847 4.60448486,98 8.61479858,98 C13.3542603,98 17,94.1374046 17,89.5725191 C17,86.0610687 14.0834082,82.5496183 10.4376685,81.8473282 Z M8.61479858,94.8396947 C5.69820679,94.4885496 3.51076294,92.3816794 3.87533691,89.5725191 C4.23991089,87.1145038 6.06278076,85.3587786 8.61479858,85.0076336 C11.5313904,85.3587786 13.7188342,87.4656489 13.3542603,90.2748092 C12.9896863,92.7328244 11.1668164,94.4885496 8.61479858,94.8396947 Z" id="Shape"></path>
                <path d="M85.2985788,81.3502775 L85.2985788,51 L77.3848322,51 C77.7445479,52.0711863 78.1042637,53.1423725 78.1042637,54.2135588 L81.7014212,54.2135588 L81.7014212,81.3502775 C77.0251164,82.4214638 74.1473903,86.7062088 75.2265376,91.348016 C76.3056849,95.9898231 80.622274,98.8463198 85.2985788,97.7751336 C89.9748836,96.7039473 92.8526097,92.4192023 91.7734624,87.7773951 C91.4137466,84.5638363 88.8957363,82.0644017 85.2985788,81.3502775 L85.2985788,81.3502775 Z M83.8597158,94.5615748 C80.9819897,94.5615748 78.8236952,92.4192023 78.8236952,89.5627055 C78.8236952,86.7062088 80.9819897,84.5638363 83.8597158,84.5638363 C86.7374418,84.5638363 88.8957363,86.7062088 88.8957363,89.5627055 C88.8957363,89.5627055 88.8957363,89.5627055 88.8957363,89.5627055 C88.8957363,92.4192023 86.377726,94.5615748 83.8597158,94.5615748 C83.8597158,94.5615748 83.8597158,94.5615748 83.8597158,94.5615748 L83.8597158,94.5615748 Z" id="Shape"></path>
                <path d="M43.5106383,28 C44.2340426,28 44.5957447,28 45.3191489,28 C46.0425532,28 46.4042553,28 47.1276596,28 L47.1276596,12.95 L54,12.95 L54,0 L37,0 L37,12.95 L43.8723404,12.95 L43.8723404,28 L43.5106383,28 Z M40.2553191,3.15 L50.3829787,3.15 L50.3829787,9.8 L40.2553191,9.8 L40.2553191,3.15 L40.2553191,3.15 Z" id="Shape"></path>
                <path d="M47.1276596,70 L43.8723404,70 L43.8723404,86.5882353 L37,86.5882353 L37,100 L54,100 L54,86.5882353 L47.1276596,86.5882353 L47.1276596,70 L47.1276596,70 Z M50.3829787,96.1176471 L40.2553191,96.1176471 L40.2553191,89.4117647 L50.3829787,89.4117647 L50.3829787,96.1176471 Z" id="Shape"></path>
                <path d="M68,41.8036869 C68.7025413,42.5139787 69.053812,43.2242705 69.4050826,43.9345623 L71.5127066,45 L83.455909,45 L83.455909,21.5603709 C88.0224275,20.4949332 90.8325928,16.2331824 89.7787808,11.6162858 C88.7249689,6.99938914 84.509721,4.15822198 79.9432024,5.22365966 C75.3766838,6.28909735 72.5665186,10.5508481 73.6203305,15.1677447 C74.3228719,18.3640578 76.7817665,20.8500791 79.9432024,21.5603709 L79.9432024,41.8036869 L68,41.8036869 Z M76.4304958,13.3920153 C76.7817665,10.5508481 78.8893904,8.41997273 81.6995557,8.77511862 C84.1584503,9.13026452 85.9148036,10.905994 86.2660743,13.3920153 C86.6173449,16.2331824 84.509721,18.7192037 81.6995557,18.7192037 C78.8893904,19.0743496 76.4304958,16.9434742 76.4304958,14.1023071 C76.4304958,14.1023071 76.4304958,13.7471612 76.4304958,13.3920153 Z" id="Shape"></path>
            </g>
        </g>
    </g>
</svg>