<?xml version="1.0" encoding="UTF-8"?>
<svg width="617px" height="156px" viewBox="0 0 617 156" version="1.1" xmlns="http://www.w3.org/2000/svg" xmlns:xlink="http://www.w3.org/1999/xlink">
    <title>protic</title>
    <g id="Page-1" stroke="none" stroke-width="1" fill="none" fill-rule="evenodd">
        <g id="protic" fill-rule="nonzero">
            <path d="M603.181411,156 L13.818589,156 C6.21836506,156 0,151.456311 0,145.902913 L0,10.0970874 C0,4.54368932 6.21836506,0 13.818589,0 L603.181411,0 C610.781635,0 617,4.54368932 617,10.0970874 L617,146.407767 C617,151.456311 610.781635,156 603.181411,156 Z" id="Path"></path>
            <g id="Group" transform="translate(51.000000, 8.000000)" fill="#000000">
                <g id="SvgjsG1591">
                    <path d="M94.2634875,65.964539 C93.2533219,59.9219858 87.1923282,55.893617 81.1313345,56.3971631 C77.090672,46.8297872 66.4839331,42.2978723 56.3822769,45.822695 C52.3416144,47.3333333 49.3111176,50.3546099 47.2907863,53.8794326 L46.7857035,53.8794326 C40.219627,53.8794326 35.168799,58.9148936 34.6637161,65.4609929 C34.6637161,65.4609929 34.6637161,65.4609929 34.6637161,65.964539 L34.6637161,66.4680851 C27.087474,67.4751773 21.5315631,74.5248227 22.5417287,82.5815603 C23.5518944,89.6312057 29.6128881,94.6666667 36.6840474,94.6666667 L91.2329907,94.6666667 C98.8092328,94.6666667 105.375309,88.1205674 105.375309,80.5673759 C106.385475,73.0141844 101.334647,66.9716312 94.2634875,65.964539 Z M92.2431563,89.6312057 L37.694213,89.6312057 C32.6433849,89.6312057 28.0976396,85.6028369 28.0976396,80.0638298 C28.0976396,75.0283688 32.1383021,70.4964539 37.694213,70.4964539 L41.2297926,70.4964539 L40.219627,67.4751773 C40.219627,66.9716312 40.219627,65.964539 40.219627,65.4609929 C40.219627,61.4326241 43.2501239,58.4113475 47.2907863,58.4113475 C47.2907863,58.4113475 47.2907863,58.4113475 47.7958692,58.4113475 C48.300952,58.4113475 48.8060348,58.4113475 48.8060348,58.9148936 L50.826366,58.9148936 L51.3314488,57.4042553 C54.3619457,50.3546099 62.9483534,47.3333333 70.0195127,50.3546099 C74.0601752,52.3687943 76.5855892,55.3900709 77.5957548,59.4184397 L78.1008376,61.9361702 L80.6262517,61.4326241 C81.1313345,60.929078 82.1415001,60.929078 82.6465829,60.929078 C86.6872454,60.929078 89.7177422,63.9503546 89.7177422,67.4751773 C89.7177422,67.4751773 89.7177422,67.4751773 89.7177422,67.9787234 L89.7177422,70.4964539 L92.2431563,70.4964539 C97.2939844,70.4964539 101.83973,74.5248227 101.83973,80.0638298 C101.83973,85.0992908 97.7990672,89.1276596 92.2431563,89.6312057 C92.7482391,89.1276596 92.7482391,89.1276596 92.2431563,89.6312057 L92.2431563,89.6312057 Z" id="Shape"></path>
                    <path d="M9.40957574,30.212766 L9.40957574,63.4468085 L28.6027224,63.4468085 L31.1281365,62.4397163 C31.6332193,61.4326241 31.6332193,59.9219858 32.1383021,58.9148936 L14.4604038,58.9148936 L14.4604038,30.212766 C20.5213975,28.7021277 24.56206,22.1560284 23.0468116,15.6099291 C21.5315631,10.5744681 17.4909007,7.04964539 12.4400726,7.04964539 C5.36891327,7.55319149 0.318085192,13.0921986 0.823168,19.6382979 C0.823168,24.6737589 4.35874766,28.7021277 9.40957574,30.212766 Z M11.9349898,11.5815603 C15.9756522,11.5815603 19.0061491,14.6028369 19.0061491,18.1276596 C19.0061491,18.1276596 19.0061491,18.1276596 19.0061491,18.6312057 C19.0061491,22.6595745 15.9756522,25.6808511 12.4400726,25.6808511 C12.4400726,25.6808511 12.4400726,25.6808511 11.9349898,25.6808511 C7.89432731,25.6808511 4.86383047,22.6595745 4.86383047,18.6312057 C4.86383047,18.6312057 4.86383047,18.6312057 4.86383047,18.6312057 C4.86383047,15.106383 7.89432731,12.0851064 11.9349898,11.5815603 C11.9349898,11.5815603 11.9349898,11.5815603 11.9349898,11.5815603 L11.9349898,11.5815603 Z" id="Shape"></path>
                    <path d="M14.4604038,115.815603 L14.4604038,77.5460993 L19.5112319,77.5460993 C19.5112319,76.035461 20.0163147,74.5248227 20.5213975,73.0141844 L9.40957574,73.0141844 L9.40957574,115.815603 C2.84349923,117.326241 -1.19716323,123.368794 0.318085192,129.914894 C1.32825081,135.453901 6.37907889,138.978723 11.9349898,138.978723 C18.5010663,138.978723 23.5518944,133.439716 23.5518944,126.893617 C23.5518944,121.858156 19.5112319,116.822695 14.4604038,115.815603 Z M11.9349898,134.446809 C7.89432731,133.943262 4.86383047,130.921986 5.36891327,126.893617 C5.87399608,123.368794 8.39941012,120.851064 11.9349898,120.347518 C15.9756522,120.851064 19.0061491,123.87234 18.5010663,127.900709 C17.9959835,131.425532 15.4705694,133.943262 11.9349898,134.446809 Z" id="Shape"></path>
                    <path d="M120.527794,115.815603 L120.527794,73.0141844 L109.415972,73.0141844 C109.921055,74.5248227 110.426137,76.035461 110.426137,77.5460993 L115.476965,77.5460993 L115.476965,115.815603 C108.910889,117.326241 104.870226,123.368794 106.385475,129.914894 C107.900723,136.460993 113.961717,140.489362 120.527794,138.978723 C127.09387,137.468085 131.134532,131.425532 129.619284,124.879433 C129.114201,120.347518 125.578622,116.822695 120.527794,115.815603 L120.527794,115.815603 Z M118.507462,134.446809 C114.4668,134.446809 111.436303,131.425532 111.436303,127.397163 C111.436303,123.368794 114.4668,120.347518 118.507462,120.347518 C122.548125,120.347518 125.578622,123.368794 125.578622,127.397163 C125.578622,127.397163 125.578622,127.397163 125.578622,127.397163 C125.578622,131.425532 122.043042,134.446809 118.507462,134.446809 C118.507462,134.446809 118.507462,134.446809 118.507462,134.446809 L118.507462,134.446809 Z" id="Shape"></path>
                    <path d="M61.433105,40.2836879 C62.4432706,40.2836879 62.9483534,40.2836879 63.958519,40.2836879 C64.9686846,40.2836879 65.4737674,40.2836879 66.4839331,40.2836879 L66.4839331,18.6312057 L76.0805064,18.6312057 L76.0805064,0 L52.3416144,0 L52.3416144,18.6312057 L61.9381878,18.6312057 L61.9381878,40.2836879 L61.433105,40.2836879 Z M56.8873597,4.53191489 L71.0296783,4.53191489 L71.0296783,14.0992908 L56.8873597,14.0992908 L56.8873597,4.53191489 L56.8873597,4.53191489 Z" id="Shape"></path>
                    <path d="M66.4839331,99.1985816 L61.9381878,99.1985816 L61.9381878,122.865248 L52.3416144,122.865248 L52.3416144,142 L76.0805064,142 L76.0805064,122.865248 L66.4839331,122.865248 L66.4839331,99.1985816 L66.4839331,99.1985816 Z M71.0296783,136.460993 L56.8873597,136.460993 L56.8873597,126.893617 L71.0296783,126.893617 L71.0296783,136.460993 Z" id="Shape"></path>
                    <path d="M96.2838187,58.9148936 C97.2939844,59.9219858 97.7990672,60.929078 98.30415,61.9361702 L101.334647,63.4468085 L118.507462,63.4468085 L118.507462,30.212766 C125.073539,28.7021277 129.114201,22.6595745 127.598953,16.1134752 C126.083704,9.56737589 120.022711,5.53900709 113.456634,7.04964539 C106.890558,8.56028369 102.849895,14.6028369 104.365144,21.1489362 C105.375309,25.6808511 108.910889,29.2056738 113.456634,30.212766 L113.456634,58.9148936 L96.2838187,58.9148936 Z M108.405806,18.6312057 C108.910889,14.6028369 111.941386,11.5815603 115.982048,12.0851064 C119.517628,12.5886525 122.043042,15.106383 122.548125,18.6312057 C123.053208,22.6595745 120.022711,26.1843972 115.982048,26.1843972 C111.941386,26.6879433 108.405806,23.6666667 108.405806,19.6382979 C108.405806,19.6382979 108.405806,19.1347518 108.405806,18.6312057 Z" id="Shape"></path>
                </g>
                <g id="SvgjsG1592" transform="translate(158.590864, 37.000000)">
                    <path d="M0.409135728,66 L0.409135728,0 L23.386235,0 C36.516006,0 47.0198228,10.3529412 47.0198228,23.2941176 C47.0198228,36.2352941 36.516006,45.9411765 23.386235,45.9411765 L13.5389067,45.9411765 L13.5389067,66 L0.409135728,66 Z M13.5389067,33 L23.386235,33 C28.6381434,33 33.2335632,28.4705882 33.2335632,23.2941176 C33.2335632,20.7058824 31.9205861,18.1176471 29.9511205,16.1764706 C27.9816548,14.2352941 25.3557006,13.5882353 22.7297464,13.5882353 L12.8824182,13.5882353 L13.5389067,33 L13.5389067,33 Z M52.9282197,66 L52.9282197,0 L74.5923418,0 C81.1572273,0 87.0656243,1.94117647 92.3175327,6.47058824 C96.9129525,10.3529412 98.8824182,16.1764706 98.8824182,21.3529412 L98.8824182,23.9411765 C98.8824182,28.4705882 97.5694411,33 94.9434869,36.2352941 C92.3175327,39.4705882 89.0350899,41.4117647 85.0961586,42.7058824 L100.195395,65.3529412 L83.7831815,65.3529412 L66.7144792,39.4705882 L66.7144792,65.3529412 L52.9282197,66 Z M66.0579907,31.7058824 L75.9053189,31.7058824 C78.5312731,31.7058824 80.5007388,31.0588235 81.8137159,29.1176471 C83.7831815,27.1764706 84.4396701,24.5882353 84.4396701,22 C84.4396701,19.4117647 83.7831815,17.4705882 81.8137159,15.5294118 C79.1877617,13.5882353 76.5618075,12.9411765 73.9358533,12.9411765 L66.0579907,12.9411765 L66.0579907,31.7058824 L66.0579907,31.7058824 Z M138.271731,0 C156.653411,0 171.752647,14.8823529 172.409136,33 C172.409136,51.1176471 157.309899,66 138.271731,66 C119.890052,66 104.790815,51.1176471 104.790815,33 C104.134327,14.8823529 119.233563,0 138.271731,0 L138.271731,0 Z M138.271731,12.9411765 C133.019823,12.9411765 127.767914,14.8823529 123.828983,18.7647059 C115.95112,26.5294118 115.95112,38.8235294 123.828983,46.5882353 C123.828983,46.5882353 123.828983,46.5882353 123.828983,46.5882353 C131.706846,54.3529412 144.180128,54.3529412 152.057991,46.5882353 C152.057991,46.5882353 152.057991,46.5882353 152.057991,46.5882353 C159.935853,38.8235294 159.935853,26.5294118 152.057991,18.7647059 C152.057991,18.7647059 152.057991,18.7647059 152.057991,18.7647059 C148.775548,14.8823529 143.52364,12.9411765 138.271731,12.9411765 Z" id="Shape"></path>
                </g>
                <g id="SvgjsG1593" transform="translate(336.979764, 37.000000)">
                    <path d="M2.63744495,0.653846154 L58.2531428,0.653846154 C59.5617475,0.653846154 60.8703522,1.96153846 60.8703522,3.26923077 C60.8703522,4.57692308 59.5617475,5.88461538 58.2531428,5.88461538 L2.63744495,5.88461538 C1.32884029,5.88461538 0.0202356363,4.57692308 0.0202356363,3.26923077 C0.0202356363,1.96153846 0.674537964,0.653846154 2.63744495,0.653846154 Z M2.63744495,7.84615385 L21.6122125,7.84615385 C25.5380264,7.84615385 29.4638404,11.1153846 29.4638404,15.6923077 L29.4638404,63.4230769 C29.4638404,64.7307692 28.1552358,66.0384615 26.8466311,66.0384615 C26.8466311,66.0384615 26.8466311,66.0384615 26.8466311,66.0384615 C25.5380264,66.0384615 24.2294218,64.7307692 24.2294218,63.4230769 L24.2294218,16.3461538 C24.2294218,15.0384615 22.9208171,13.7307692 21.6122125,13.7307692 L2.63744495,13.7307692 C1.32884029,13.7307692 0.0202356363,12.4230769 0.0202356363,11.1153846 C0.0202356363,9.80769231 0.674537964,8.5 2.63744495,7.84615385 L2.63744495,7.84615385 Z M38.624073,7.84615385 L57.5988405,7.84615385 C58.9074452,7.84615385 60.2160498,9.15384615 60.2160498,10.4615385 C60.2160498,11.7692308 58.9074452,13.0769231 57.5988405,13.0769231 L38.624073,13.0769231 C37.3154683,13.0769231 36.0068637,14.3846154 36.0068637,15.6923077 L36.0068637,63.4230769 C36.0068637,64.7307692 34.698259,66.0384615 33.3896544,66.0384615 C32.0810497,66.0384615 30.7724451,64.7307692 30.7724451,63.4230769 C30.7724451,63.4230769 30.7724451,63.4230769 30.7724451,63.4230769 L30.7724451,16.3461538 C31.4267474,11.7692308 34.698259,8.5 38.624073,7.84615385 L38.624073,7.84615385 Z M73.9563987,0.653846154 C77.8822127,0.653846154 80.499422,3.26923077 80.499422,7.19230769 L80.499422,63.4230769 C80.499422,64.7307692 79.1908174,66.0384615 77.8822127,66.0384615 C77.8822127,66.0384615 77.8822127,66.0384615 77.8822127,66.0384615 C76.573608,66.0384615 75.2650034,64.7307692 75.2650034,63.4230769 L75.2650034,7.19230769 C75.2650034,6.53846154 74.6107011,5.88461538 73.9563987,5.88461538 C73.3020964,5.88461538 72.6477941,6.53846154 72.6477941,7.19230769 L72.6477941,33.3461538 C72.6477941,34.6538462 71.3391894,35.9615385 69.3762824,35.3076923 C68.0676778,35.3076923 67.4133754,34 67.4133754,33.3461538 L67.4133754,7.19230769 C67.4133754,3.26923077 70.6848871,0.653846154 73.9563987,0.653846154 L73.9563987,0.653846154 Z M120.411864,0 C129.572097,0 138.078027,3.26923077 143.966748,9.80769231 C144.62105,11.1153846 144.62105,12.4230769 143.312446,13.7307692 C142.658143,14.3846154 141.349539,14.3846154 140.040934,13.7307692 C134.806515,8.5 127.60919,5.23076923 119.757562,5.23076923 C104.054306,5.88461538 91.6225616,19.6153846 92.9311662,35.3076923 C93.5854686,49.6923077 105.36291,61.4615385 119.757562,62.1153846 C127.60919,62.1153846 134.806515,58.8461538 140.040934,53.6153846 C140.695236,52.9615385 140.695236,52.3076923 140.040934,52.3076923 C140.040934,52.3076923 140.040934,52.3076923 140.040934,52.3076923 C139.386632,51.6538462 138.732329,51.6538462 138.732329,52.3076923 C138.732329,52.3076923 138.732329,52.3076923 138.732329,52.3076923 C128.263492,62.7692308 111.905934,62.7692308 101.437097,52.3076923 C96.2026779,47.0769231 93.5854686,40.5384615 93.5854686,34 C93.5854686,26.8076923 96.2026779,20.2692308 101.437097,15.6923077 C102.745701,15.0384615 104.054306,15.0384615 105.36291,15.6923077 C106.671515,17 106.671515,18.3076923 105.36291,19.6153846 C105.36291,19.6153846 105.36291,19.6153846 105.36291,19.6153846 C96.8569802,27.4615385 96.8569802,41.1923077 104.708608,49.0384615 C112.560236,57.5384615 126.300585,57.5384615 134.152213,49.6923077 C134.152213,49.6923077 134.152213,49.6923077 134.806515,49.0384615 C137.423725,46.4230769 140.695236,46.4230769 143.312446,48.3846154 C143.312446,48.3846154 143.312446,48.3846154 143.966748,49.0384615 C146.583957,51 146.583957,54.9230769 144.62105,57.5384615 C144.62105,57.5384615 144.62105,58.1923077 143.966748,58.1923077 C130.880701,71.2692308 109.288724,71.2692308 96.2026779,58.1923077 C83.1166313,45.1153846 83.1166313,23.5384615 96.2026779,10.4615385 C102.745701,3.26923077 111.251631,0 120.411864,0 Z" id="Shape"></path>
                </g>
            </g>
        </g>
    </g>
</svg>