<?xml version="1.0" encoding="UTF-8"?>
<svg width="670px" height="146px" viewBox="0 0 670 146" version="1.1" xmlns="http://www.w3.org/2000/svg" xmlns:xlink="http://www.w3.org/1999/xlink">
    <title>Asset 1</title>
    <g id="Page-1" stroke="none" stroke-width="1" fill="none" fill-rule="evenodd">
        <g id="Asset-1" transform="translate(0.990000, 0.370000)" fill="#FFFFFF" fill-rule="nonzero">
            <g id="Group" transform="translate(0.000000, 20.630000)">
                <path d="M125.66,107.37 C124.55,107.32 123.44,107.27 122.29,107.22 L122.29,95.44 C122.43,95.44 122.57,95.44 122.71,95.44 C124.26,95.39 125.81,95.38 127.35,95.27 C128.5,95.19 129.62,94.87 130.66,94.35 C132.58,93.39 133.65,91.76 134.04,89.72 C134.3,88.38 134.43,87 134.43,85.64 C134.46,80.16 134.42,74.68 134.42,69.2 C134.42,67.49 134.45,65.77 134.5,64.06 C134.55,62.51 134.8,60.98 135.39,59.53 C136.41,57.01 138.34,55.43 140.77,54.39 C141.35,54.14 141.95,53.93 142.44,53.74 C141.44,53.25 140.34,52.81 139.34,52.21 C136.75,50.65 135.33,48.25 134.81,45.32 C134.59,44.08 134.47,42.81 134.46,41.56 C134.42,35.55 134.45,29.53 134.44,23.52 C134.44,22.08 134.44,20.64 134.38,19.2 C134.31,17.48 133.95,15.83 132.77,14.48 C131.79,13.37 130.5,12.79 129.13,12.34 C127.49,11.8 125.78,11.68 124.08,11.53 C123.85,11.51 123.62,11.49 123.39,11.46 C122.95,11.4133333 122.73,11.1733333 122.73,10.74 C122.73,7.28 122.73,3.83 122.73,0.37 C122.73,0.25 122.71,0.13 122.7,0.01 C123.05,0.01 123.41,0.01 123.76,0.01 C123.84,0.04 123.92,0.08 124.01,0.09 C127.09,0.23 130.17,0.31 133.25,0.53 C134.87,0.64 136.5,0.88 138.07,1.27 C140.95,1.98 143.31,3.53 144.96,6.06 C146.41,8.29 146.97,10.79 147.1,13.39 C147.2,15.36 147.21,17.33 147.21,19.3 C147.22,26.27 147.21,33.23 147.22,40.2 C147.22,41.38 147.24,42.57 147.37,43.74 C147.57,45.7 148.66,46.9 150.58,47.37 C151.26,47.54 151.97,47.61 152.67,47.68 C154.67,47.89 156.15,49.18 156.56,51.12 C156.63,51.47 156.69,51.82 156.76,52.17 L156.76,53.88 C156.68,54.29 156.58,54.71 156.52,55.13 C156.14,57.64 154.46,58.92 152.4,59.39 C151.57,59.58 150.74,59.8 149.95,60.11 C148.68,60.59 147.83,61.52 147.59,62.86 C147.39,63.95 147.3,65.07 147.29,66.18 C147.24,69.62 147.26,73.06 147.24,76.5 C147.22,79.41 147.22,82.32 147.15,85.23 C147.07,88.86 146.97,92.48 146.79,96.11 C146.68,98.35 145.86,100.36 144.38,102.08 C142.94,103.75 141.09,104.79 139.02,105.49 C135.46,106.71 131.79,107.29 128.03,107.37 C127.24,107.37 126.45,107.37 125.65,107.37 L125.66,107.37 Z" id="Path" opacity="0.92"></path>
                <path d="M33.74,0 C33.76,0.12 33.81,0.23 33.81,0.35 C33.81,3.97 33.81,7.59 33.81,11.21 C33.81,11.24 33.81,11.26 33.79,11.35 C32.91,11.43 32.01,11.51 31.11,11.59 C29.19,11.76 27.32,12.1 25.6,13.02 C23.63,14.07 22.56,15.76 22.34,17.93 C22.17,19.56 22.18,21.21 22.16,22.86 C22.14,25.93 22.17,29.01 22.16,32.08 C22.16,35.47 22.16,38.86 22.11,42.24 C22.08,44.42 21.72,46.54 20.72,48.5 C19.49,50.9 17.5,52.4 15,53.31 C14.77,53.39 14.57,53.53 14.28,53.68 C15.11,54.07 15.85,54.4 16.57,54.77 C19.71,56.36 21.51,58.91 21.89,62.4 C22.07,64.07 22.12,65.76 22.14,67.44 C22.18,71.24 22.17,75.03 22.17,78.83 C22.17,81.56 22.15,84.3 22.17,87.03 C22.18,88.34 22.38,89.63 22.83,90.86 C23.66,93.13 25.34,94.43 27.63,95.02 C28.96,95.36 30.31,95.46 31.67,95.46 C32.55,95.46 33.43,95.46 34.33,95.46 L34.33,107.14 C33.45,107.19 32.57,107.25 31.69,107.29 C28.73,107.44 25.79,107.29 22.88,106.77 C20.05,106.26 17.28,105.53 14.78,104.07 C11.78,102.31 10.14,99.64 9.89,96.17 C9.76,94.41 9.74,92.64 9.71,90.87 C9.64,86.9 9.59,82.93 9.54,78.96 C9.51,77 9.5,75.04 9.48,73.09 C9.45,70.76 9.46,68.44 9.38,66.12 C9.34,64.99 9.19,63.84 8.97,62.73 C8.59,60.8 7.14,59.61 5.13,59.43 C4.5,59.37 3.86,59.27 3.25,59.12 C1.39,58.68 0.41,57.44 0.1,55.6 C0.05,55.28 0.03,54.95 -6.21724894e-15,54.63 C-6.21724894e-15,53.95 -6.21724894e-15,53.26 -6.21724894e-15,52.58 C0.03,52.24 0.05,51.9 0.1,51.57 C0.36,49.6 1.33,48.48 3.26,48.01 C3.98,47.83 4.73,47.75 5.46,47.61 C7.66,47.2 8.95,45.99 9.27,43.84 C9.44,42.73 9.41,41.59 9.41,40.46 C9.44,32.26 9.43,24.06 9.49,15.85 C9.5,14.2 9.63,12.53 9.9,10.91 C10.72,6.03 13.5,2.8 18.29,1.38 C20.92,0.6 23.64,0.49 26.35,0.35 C28.59,0.23 30.83,0.17 33.07,0.09 C33.12,0.09 33.18,0.04 33.23,0.01 C33.39,0.01 33.56,0.01 33.72,0.01 L33.74,0 Z" id="Path" opacity="0.92"></path>
                <path d="M46.91,26.13 C46.99,25.99 47.14,25.93 47.25,25.9 C47.7,25.75 47.93,25.75 47.93,25.75 C52.9,25.75 57.86,25.74 62.83,25.73 C64.27,25.76 65.33,25.76 66.05,25.72 C66.22,25.71 66.6,25.68 66.84,25.92 C67.1,26.18 67.05,26.61 67.04,26.71 C66.97,27.51 66.99,37.33 67.04,51.04 C67.04,63.19 67.04,75.34 67.04,87.49 C67.02,87.7 67.01,87.91 66.99,88.11 C66.96,88.2 66.89,88.41 66.7,88.58 C66.59,88.68 66.48,88.73 66.4,88.76 C66.4,88.76 65.94,88.76 65.94,88.76 C63.25,88.76 60.55,88.76 57.86,88.76 C55.75,88.76 53.64,88.79 51.53,88.79 C50.22,88.79 48.92,88.77 47.61,88.76 C47.08,88.76 46.86,88.53 46.87,88.01 C46.88,86.49 46.9,84.96 46.9,83.44 C46.9,81.79 46.87,80.15 46.87,78.5 C46.87,74.75 46.87,70.99 46.87,67.24 C46.87,62.93 46.83,58.62 46.83,54.3 C46.83,51.59 46.9,48.89 46.9,46.18 C46.9,45.44 46.9,44.73 46.9,43.88 C46.9,37.55 46.9,34.39 46.87,34.09 C46.87,34.09 46.67,32.29 46.85,26.33 C46.85,26.3 46.85,26.21 46.9,26.13 L46.91,26.13 Z" id="Path"></path>
                <path d="M85.38,56.41 C85.51,56.57 85.63,56.73 85.77,56.88 C88.16,59.28 90.56,61.67 92.96,64.07 C96.19,67.29 99.41,70.51 102.64,73.73 C105.88,76.96 109.12,80.18 112.35,83.41 C113.86,84.92 115.35,86.45 116.86,87.97 C117.07,88.19 117.42,88.34 117.12,88.79 L116.48,88.79 C109.3,88.79 102.11,88.79 94.93,88.79 C93.28,88.79 91.64,88.77 89.99,88.77 C89.61,88.77 89.28,88.69 89,88.4 C85.73,85.11 82.46,81.82 79.17,78.55 C77,76.39 74.82,74.25 72.64,72.1 C72.39,71.85 72.16,71.58 71.9,71.34 C71.1,70.63 70.95,69.74 70.99,68.72 C71.05,67.2 71.01,65.68 71.01,64.16 C71.01,63.55 70.98,62.94 70.98,62.32 C70.98,55.99 70.98,49.67 70.98,43.34 C70.98,43.03 71.02,42.72 71.07,42.41 C71.08,42.34 71.21,42.28 71.28,42.22 C71.73,42.73 72.15,43.26 72.62,43.73 C76.47,47.57 80.32,51.39 84.18,55.22 C84.58,55.62 84.98,56.02 85.39,56.42 L85.38,56.41 Z" id="Path"></path>
                <path d="M85.38,56.41 C84.98,56.01 84.58,55.61 84.17,55.21 C80.32,51.38 76.46,47.56 72.61,43.72 C72.13,43.24 71.71,42.71 71.27,42.21 C72.09,41.38 72.9,40.54 73.73,39.71 C77.08,36.35 80.44,32.99 83.8,29.64 C85.01,28.43 86.27,27.26 87.49,26.07 C87.7,25.87 87.91,25.78 88.21,25.78 C92.25,25.79 96.29,25.78 100.33,25.78 C105.1,25.78 109.88,25.77 114.65,25.76 C115.04,25.76 115.43,25.76 115.82,25.76 C115.83,25.8 115.84,25.84 115.85,25.87 C115.63,26.1 115.42,26.34 115.2,26.56 C113,28.74 110.78,30.91 108.58,33.1 C106,35.68 103.45,38.28 100.88,40.86 C100.38,41.36 99.85,41.83 99.35,42.33 C95.58,46.1 91.81,49.87 88.05,53.65 C87.15,54.56 86.27,55.48 85.38,56.4 L85.38,56.41 Z" id="Path"></path>
            </g>
            <g id="Group" transform="translate(163.000000, 0.000000)" font-size="120.11">
                <text id="obu" font-family="Courier-Bold, Courier" font-weight="bold">
                    <tspan x="0" y="115">obu</tspan>
                </text>
                <text id="Soft" font-family="Courier" font-weight="normal">
                    <tspan x="216.24" y="115">Soft</tspan>
                </text>
            </g>
        </g>
    </g>
</svg>