<?xml version="1.0" encoding="UTF-8"?>
<svg id="Layer_2" xmlns="http://www.w3.org/2000/svg" viewBox="0 0 669.55 145.51">
  <defs>
    <style>
      .cls-1 {
        font-family: Courier-Bold, Courier;
        font-weight: 700;
      }

      .cls-2 {
        fill: #005eac;
      }

      .cls-3 {
        font-family: Courier, Courier;
        letter-spacing: 0em;
      }

      .cls-4 {
        opacity: .92;
        stroke: #fff;
        stroke-miterlimit: 10;
        stroke-width: 4px;
      }

      .cls-4, .cls-5 {
        fill: #212a3a;
      }

      .cls-6 {
        fill: #008ecc;
      }

      .cls-5 {
        font-size: 120.11px;
      }
    </style>
  </defs>
  <g id="Layer_1-2" data-name="Layer_1">
    <g>
      <g>
        <path class="cls-4" d="M127.65,109.37c-1.11-.05-2.22-.1-3.37-.15v-11.78c.14,0,.28,0,.42,0,1.55-.05,3.1-.06,4.64-.17,1.15-.08,2.27-.4,3.31-.92,1.92-.96,2.99-2.59,3.38-4.63.26-1.34.39-2.72.39-4.08.03-5.48-.01-10.96-.01-16.44,0-1.71.03-3.43.08-5.14.05-1.55.3-3.08.89-4.53,1.02-2.52,2.95-4.1,5.38-5.14.58-.25,1.18-.46,1.67-.65-1-.49-2.1-.93-3.1-1.53-2.59-1.56-4.01-3.96-4.53-6.89-.22-1.24-.34-2.51-.35-3.76-.04-6.01-.01-12.03-.02-18.04,0-1.44,0-2.88-.06-4.32-.07-1.72-.43-3.37-1.61-4.72-.98-1.11-2.27-1.69-3.64-2.14-1.64-.54-3.35-.66-5.05-.81-.23-.02-.46-.04-.69-.07q-.66-.07-.66-.72c0-3.46,0-6.91,0-10.37,0-.12-.02-.24-.03-.36.35,0,.71,0,1.06,0,.08.03.16.07.25.08,3.08.14,6.16.22,9.24.44,1.62.11,3.25.35,4.82.74,2.88.71,5.24,2.26,6.89,4.79,1.45,2.23,2.01,4.73,2.14,7.33.1,1.97.11,3.94.11,5.91.01,6.97,0,13.93.01,20.9,0,1.18.02,2.37.15,3.54.2,1.96,1.29,3.16,3.21,3.63.68.17,1.39.24,2.09.31,2,.21,3.48,1.5,3.89,3.44.07.35.13.7.2,1.05v1.71c-.08.41-.18.83-.24,1.25-.38,2.51-2.06,3.79-4.12,4.26-.83.19-1.66.41-2.45.72-1.27.48-2.12,1.41-2.36,2.75-.2,1.09-.29,2.21-.3,3.32-.05,3.44-.03,6.88-.05,10.32-.02,2.91-.02,5.82-.09,8.73-.08,3.63-.18,7.25-.36,10.88-.11,2.24-.93,4.25-2.41,5.97-1.44,1.67-3.29,2.71-5.36,3.41-3.56,1.22-7.23,1.8-10.99,1.88-.79,0-1.58,0-2.38,0Z"/>
        <path class="cls-4" d="M35.73,2c.02.12.07.23.07.35,0,3.62,0,7.24,0,10.86,0,.03,0,.05-.02.14-.88.08-1.78.16-2.68.24-1.92.17-3.79.51-5.51,1.43-1.97,1.05-3.04,2.74-3.26,4.91-.17,1.63-.16,3.28-.18,4.93-.02,3.07.01,6.15,0,9.22,0,3.39,0,6.78-.05,10.16-.03,2.18-.39,4.3-1.39,6.26-1.23,2.4-3.22,3.9-5.72,4.81-.23.08-.43.22-.72.37.83.39,1.57.72,2.29,1.09,3.14,1.59,4.94,4.14,5.32,7.63.18,1.67.23,3.36.25,5.04.04,3.8.03,7.59.03,11.39,0,2.73-.02,5.47,0,8.2.01,1.31.21,2.6.66,3.83.83,2.27,2.51,3.57,4.8,4.16,1.33.34,2.68.44,4.04.44.88,0,1.76,0,2.66,0v11.68c-.88.05-1.76.11-2.64.15-2.96.15-5.9,0-8.81-.52-2.83-.51-5.6-1.24-8.1-2.7-3-1.76-4.64-4.43-4.89-7.9-.13-1.76-.15-3.53-.18-5.3-.07-3.97-.12-7.94-.17-11.91-.03-1.96-.04-3.92-.06-5.87-.03-2.33-.02-4.65-.1-6.97-.04-1.13-.19-2.28-.41-3.39-.38-1.93-1.83-3.12-3.84-3.3-.63-.06-1.27-.16-1.88-.31-1.86-.44-2.84-1.68-3.15-3.52-.05-.32-.07-.65-.1-.97,0-.68,0-1.37,0-2.05.03-.34.05-.68.1-1.01.26-1.97,1.23-3.09,3.16-3.56.72-.18,1.47-.26,2.2-.4,2.2-.41,3.49-1.62,3.81-3.77.17-1.11.14-2.25.14-3.38.03-8.2.02-16.4.08-24.61.01-1.65.14-3.32.41-4.94.82-4.88,3.6-8.11,8.39-9.53,2.63-.78,5.35-.89,8.06-1.03,2.24-.12,4.48-.18,6.72-.26.05,0,.11-.05.16-.08.16,0,.33,0,.49,0Z"/>
        <path class="cls-2" d="M48.9,28.13c.08-.14.23-.2.34-.23.45-.15.68-.15.68-.15,4.97,0,9.93-.01,14.9-.02,1.44.03,2.5.03,3.22-.01.17-.01.55-.04.79.2.26.26.21.69.2.79-.07.8-.05,10.62,0,24.33,0,12.15,0,24.3,0,36.45-.02.21-.03.42-.05.62-.03.09-.1.3-.29.47-.11.1-.22.15-.3.18,0,0-.46,0-.46,0-2.69,0-5.39,0-8.08,0-2.11,0-4.22.03-6.33.03-1.31,0-2.61-.02-3.92-.03-.53,0-.75-.23-.74-.75.01-1.52.03-3.05.03-4.57,0-1.65-.03-3.29-.03-4.94,0-3.75,0-7.51,0-11.26,0-4.31-.04-8.62-.04-12.94,0-2.71.07-5.41.07-8.12,0-.74,0-1.45,0-2.3,0-6.33,0-9.49-.03-9.79,0,0-.2-1.8-.02-7.76,0-.03,0-.12.05-.2Z"/>
        <path class="cls-2" d="M87.37,58.41c.13.16.25.32.39.47,2.39,2.4,4.79,4.79,7.19,7.19,3.23,3.22,6.45,6.44,9.68,9.66,3.24,3.23,6.48,6.45,9.71,9.68,1.51,1.51,3,3.04,4.51,4.56.21.22.56.37.26.82h-.64c-7.18,0-14.37,0-21.55,0-1.65,0-3.29-.02-4.94-.02-.38,0-.71-.08-.99-.37-3.27-3.29-6.54-6.58-9.83-9.85-2.17-2.16-4.35-4.3-6.53-6.45-.25-.25-.48-.52-.74-.76-.8-.71-.95-1.6-.91-2.62.06-1.52.02-3.04.02-4.56,0-.61-.03-1.22-.03-1.84,0-6.33,0-12.65,0-18.98,0-.31.04-.62.09-.93.01-.07.14-.13.21-.19.45.51.87,1.04,1.34,1.51,3.85,3.84,7.7,7.66,11.56,11.49.4.4.8.8,1.21,1.2Z"/>
        <path class="cls-6" d="M87.37,58.41c-.4-.4-.8-.8-1.21-1.2-3.85-3.83-7.71-7.65-11.56-11.49-.48-.48-.9-1.01-1.34-1.51.82-.83,1.63-1.67,2.46-2.5,3.35-3.36,6.71-6.72,10.07-10.07,1.21-1.21,2.47-2.38,3.69-3.57.21-.2.42-.29.72-.29,4.04.01,8.08,0,12.12,0,4.77,0,9.55-.01,14.32-.02.39,0,.78,0,1.17,0,.01.04.02.08.03.11-.22.23-.43.47-.65.69-2.2,2.18-4.42,4.35-6.62,6.54-2.58,2.58-5.13,5.18-7.7,7.76-.5.5-1.03.97-1.53,1.47-3.77,3.77-7.54,7.54-11.3,11.32-.9.91-1.78,1.83-2.67,2.75Z"/>
      </g>
      <text class="cls-5" transform="translate(164.99 96.37)"><tspan class="cls-1" x="0" y="0">obu</tspan><tspan class="cls-3" x="216.24" y="0">Soft</tspan></text>
    </g>
  </g>
</svg>