<?xml version="1.0" encoding="UTF-8"?>
<svg width="577px" height="500px" viewBox="0 0 577 500" version="1.1" xmlns="http://www.w3.org/2000/svg" xmlns:xlink="http://www.w3.org/1999/xlink">
    <title>Group 14</title>
    <defs>
        <polygon id="path-1" points="0 0 101.344 0 101.344 315.6303 0 315.6303"></polygon>
        <polygon id="path-3" points="0 0 100.921 0 100.921 315.575685 0 315.575685"></polygon>
        <polygon id="path-5" points="0 499.21 576.633 499.21 576.633 0 0 0"></polygon>
    </defs>
    <g id="Page-1" stroke="none" stroke-width="1" fill="none" fill-rule="evenodd">
        <g id="Group-14">
            <g id="Group-3" transform="translate(417.386100, 0.000000)">
                <mask id="mask-2" fill="white">
                    <use xlink:href="#path-1"></use>
                </mask>
                <g id="Clip-2"></g>
                <path d="M9.893,315.6253 C6.625,315.4813 3.358,315.3373 0,315.1903 L0,280.5593 C0.398,280.5593 0.82,280.5723 1.242,280.5573 C5.791,280.4043 10.348,280.3673 14.886,280.0523 C18.279,279.8163 21.554,278.8823 24.622,277.3523 C30.273,274.5353 33.409,269.7493 34.552,263.7543 C35.303,259.8203 35.689,255.7593 35.713,251.7523 C35.807,235.6393 35.676,219.5253 35.676,203.4123 C35.675,198.3783 35.751,193.3413 35.923,188.3103 C36.08,183.7433 36.812,179.2613 38.543,174.9923 C41.551,167.5783 47.212,162.9293 54.373,159.8683 C56.085,159.1363 57.843,158.5123 59.291,157.9503 C56.347,156.5123 53.112,155.2173 50.168,153.4393 C42.554,148.8393 38.393,141.7843 36.848,133.1903 C36.195,129.5543 35.834,125.8183 35.813,122.1253 C35.708,104.4503 35.776,86.7743 35.759,69.0983 C35.755,64.8633 35.761,60.6243 35.583,56.3943 C35.37,51.3303 34.33,46.4873 30.843,42.5223 C27.973,39.2573 24.179,37.5493 20.153,36.2253 C15.325,34.6363 10.307,34.2723 5.297,33.8383 C4.621,33.7793 3.945,33.7183 3.271,33.6423 C1.343,33.4273 1.343,33.4243 1.343,31.5333 C1.343,21.3763 1.344,11.2183 1.34,1.0613 C1.34,0.7073 1.291,0.3533 1.264,-0.0007 L4.384,-0.0007 C4.624,0.0783 4.862,0.2143 5.105,0.2253 C14.159,0.6433 23.226,0.8813 32.264,1.5243 C37.019,1.8623 41.81,2.5593 46.433,3.7023 C54.894,5.7953 61.847,10.3443 66.676,17.7853 C70.928,24.3373 72.592,31.6873 72.972,39.3463 C73.259,45.1293 73.298,50.9293 73.308,56.7223 C73.345,77.1993 73.304,97.6763 73.341,118.1533 C73.347,121.6233 73.412,125.1113 73.772,128.5583 C74.375,134.3213 77.563,137.8613 83.202,139.2303 C85.206,139.7173 87.286,139.9333 89.344,140.1473 C95.219,140.7583 99.561,144.5643 100.771,150.2703 C100.988,151.2943 101.155,152.3293 101.344,153.3593 L101.344,158.3993 C101.103,159.6193 100.813,160.8323 100.628,162.0603 C99.518,169.4353 94.571,173.2013 88.514,174.5853 C86.075,175.1433 83.636,175.8043 81.301,176.6903 C77.578,178.1013 75.077,180.8483 74.361,184.7693 C73.776,187.9683 73.509,191.2613 73.464,194.5183 C73.324,204.6333 73.377,214.7503 73.317,224.8673 C73.266,233.4223 73.256,241.9793 73.059,250.5313 C72.815,261.1923 72.526,271.8553 72.006,282.5053 C71.685,289.0963 69.285,295.0083 64.932,300.0553 C60.687,304.9783 55.251,308.0083 49.186,310.0923 C38.713,313.6923 27.922,315.3883 16.878,315.6303 C14.55,315.6303 12.221,315.6303 9.893,315.6253" id="Fill-1" fill="#FEFEFE" mask="url(#mask-2)"></path>
            </g>
            <g id="Group-6" transform="translate(57.902600, 0.000000)">
                <mask id="mask-4" fill="white">
                    <use xlink:href="#path-3"></use>
                </mask>
                <g id="Clip-5"></g>
                <path d="M99.148,-0.0003 C99.22,0.3397 99.353,0.6797 99.354,1.0197 C99.363,11.6597 99.36,22.2997 99.356,32.9387 C99.356,33.0167 99.331,33.0937 99.284,33.3557 C96.69,33.5907 94.047,33.8357 91.402,34.0687 C85.764,34.5657 80.258,35.5637 75.193,38.2757 C69.409,41.3727 66.259,46.3397 65.606,52.7137 C65.115,57.5087 65.122,62.3657 65.091,67.1957 C65.032,76.2337 65.133,85.2727 65.119,94.3117 C65.104,104.2697 65.108,114.2287 64.963,124.1847 C64.869,130.5787 63.83,136.8227 60.863,142.5927 C57.241,149.6387 51.397,154.0697 44.061,156.7237 C43.393,156.9657 42.785,157.3737 41.953,157.8067 C44.4,158.9667 46.562,159.9347 48.674,161.0027 C57.908,165.6707 63.206,173.1787 64.317,183.4377 C64.848,188.3487 64.985,193.3177 65.037,198.2627 C65.154,209.4207 65.112,220.5797 65.125,231.7387 C65.134,239.7767 65.069,247.8147 65.152,255.8517 C65.191,259.6927 65.764,263.4857 67.094,267.1237 C69.538,273.8107 74.479,277.6207 81.214,279.3507 C85.109,280.3517 89.086,280.6307 93.09,280.6377 C95.678,280.6417 98.266,280.6387 100.921,280.6387 L100.921,314.9657 C98.333,315.1157 95.754,315.2817 93.172,315.4127 C84.484,315.8517 75.837,315.4247 67.275,313.8777 C58.967,312.3757 50.809,310.2377 43.468,305.9277 C34.657,300.7557 29.825,292.8947 29.081,282.6947 C28.703,277.5197 28.634,272.3187 28.543,267.1287 C28.339,255.4587 28.203,243.7887 28.052,232.1187 C27.977,226.3627 27.931,220.6067 27.867,214.8497 C27.79,208.0147 27.823,201.1757 27.578,194.3467 C27.459,191.0107 27.014,187.6547 26.374,184.3747 C25.265,178.6947 20.995,175.2077 15.098,174.6867 C13.238,174.5227 11.375,174.2127 9.558,173.7827 C4.102,172.4907 1.205,168.8337 0.308,163.4377 C0.152,162.4947 0.1,161.5337 0,160.5817 C0.002,158.5687 0.005,156.5557 0.007,154.5437 C0.102,153.5497 0.169,152.5527 0.297,151.5647 C1.048,145.7667 3.906,142.4887 9.591,141.0907 C11.715,140.5687 13.908,140.3297 16.063,139.9277 C22.526,138.7197 26.321,135.1627 27.275,128.8487 C27.767,125.5937 27.68,122.2367 27.691,118.9247 C27.774,94.8127 27.751,70.7007 27.921,46.5887 C27.955,41.7387 28.334,36.8367 29.136,32.0567 C31.545,17.6977 39.718,8.2077 53.799,4.0467 C61.526,1.7627 69.523,1.4387 77.488,1.0067 C84.067,0.6497 90.656,0.4887 97.24,0.2297 C97.398,0.2227 97.552,0.0797 97.708,-0.0003 L99.148,-0.0003 Z" id="Fill-4" fill="#FEFEFE" mask="url(#mask-4)"></path>
            </g>
            <path d="M195.777,76.8205 C196.011,76.4125 196.449,76.2455 196.763,76.1395 C198.086,75.6955 198.775,75.6925 198.775,75.6925 C213.374,75.6745 227.973,75.6555 242.572,75.6365 C246.798,75.7295 249.929,75.7375 252.05,75.6025 C252.541,75.5715 253.677,75.4885 254.382,76.1945 C255.137,76.9515 254.994,78.2125 254.97,78.5045 C254.774,80.8615 254.822,109.7095 254.969,150.0205 C254.969,185.7375 254.969,221.4545 254.969,257.1715 C254.922,257.7825 254.875,258.3925 254.828,259.0035 C254.751,259.2815 254.54,259.8855 253.971,260.3895 C253.65,260.6745 253.323,260.8315 253.092,260.9185 C253.091,260.9185 251.743,260.9185 251.742,260.9185 C243.822,260.9185 235.903,260.9075 227.983,260.9225 C221.785,260.9345 215.588,260.9985 209.39,261.005682 C205.552,261.0095 201.715,260.9465 197.877,260.9205 C196.332,260.9095 195.677,260.2585 195.689,258.7045 C195.724,254.2275 195.791,249.7495 195.79,245.2725 C195.79,240.4345 195.702,235.5965 195.695,230.7585 C195.68,219.7205 195.708,208.6815 195.686,197.6435 C195.661,184.9665 195.564,172.2895 195.572,159.6125 C195.577,151.6575 195.775,143.7015 195.785,135.7455 C195.788,133.5795 195.79,131.4835 195.79,128.9985 C195.783,110.4015 195.781,101.1025 195.687,100.2335 C195.687,100.2335 195.113,94.9285 195.619,77.4185 C195.622,77.3175 195.634,77.0705 195.777,76.8205" id="Fill-7" fill="#FEFEFE"></path>
            <path d="M308.8702,165.8325 C309.2482,166.2905 309.5912,166.7835 310.0092,167.2025 C317.0442,174.2515 324.0842,181.2955 331.1312,188.3335 C340.6132,197.8035 350.0992,207.2685 359.5862,216.7335 C369.0972,226.2225 378.6212,235.6975 388.1202,245.1995 C392.5592,249.6395 396.9482,254.1285 401.3662,258.5895 C401.9922,259.2225 403.0102,259.6785 402.1302,260.989638 L400.2442,260.989638 C379.1252,260.989638 358.0072,260.9925 336.8892,260.9855 C332.0512,260.9835 327.2132,260.9335 322.3752,260.9245 C321.2522,260.9225 320.2972,260.6755 319.4572,259.8295 C309.8432,250.1595 300.2232,240.4955 290.5682,230.8665 C284.2002,224.5155 277.7712,218.2255 271.3742,211.9045 C270.6342,211.1735 269.9642,210.3675 269.1852,209.6835 C266.8212,207.6105 266.3842,204.9815 266.5092,201.9805 C266.6952,197.5145 266.5822,193.0345 266.5772,188.5615 C266.5752,186.7635 266.4952,184.9645 266.4942,183.1665 C266.4882,164.5695 266.4872,145.9715 266.5012,127.3735 C266.5022,126.4625 266.6222,125.5445 266.7712,124.6435 C266.8072,124.4245 267.1822,124.2625 267.4012,124.0745 C268.7132,125.5615 269.9472,127.1265 271.3492,128.5245 C282.6562,139.8025 293.9942,151.0485 305.3232,162.3045 C306.5062,163.4795 307.6882,164.6565 308.8702,165.8325" id="Fill-9" fill="#FEFEFE"></path>
            <path d="M308.8702,165.8325 C307.6882,164.6565 306.5062,163.4795 305.3232,162.3045 C293.9942,151.0485 282.6562,139.8025 271.3492,128.5245 C269.9472,127.1265 268.7132,125.5615 267.4012,124.0745 C269.8072,121.6215 272.1942,119.1505 274.6212,116.7195 C284.4812,106.8435 294.3372,96.9635 304.2302,87.1215 C307.7992,83.5715 311.4772,80.1315 315.0862,76.6225 C315.6972,76.0285 316.3342,75.7805 317.2072,75.7825 C329.0832,75.8125 340.9602,75.8105 352.8362,75.8005 C366.8722,75.7885 380.9082,75.7625 394.9432,75.7425 C396.0862,75.74125 397.2292,75.74125 398.3712,75.74125 C398.4042,75.8545 398.4362,75.9665 398.4682,76.0785 C397.8282,76.7595 397.2072,77.4595 396.5432,78.1165 C390.0632,84.5275 383.5452,90.9005 377.0972,97.3445 C369.5182,104.9185 362.0042,112.5585 354.4482,120.1555 C352.9832,121.6285 351.4252,123.0085 349.9572,124.4775 C338.8732,135.5615 327.7942,146.6505 316.7302,157.7535 C314.0792,160.4155 311.4882,163.1375 308.8702,165.8325" id="Fill-11" fill="#FEFEFE"></path>
            <mask id="mask-6" fill="white">
                <use xlink:href="#path-5"></use>
            </mask>
            <g id="Clip-13"></g>
            <text id="KobuSoft" mask="url(#mask-6)" font-family="Courier-Bold, Courier" font-size="120.1125" font-weight="bold" fill="#FEFEFE">
                <tspan x="0" y="444.95">Kobu</tspan>
                <tspan x="288.316919" y="444.95" font-family="Courier" font-weight="normal">Soft</tspan>
            </text>
        </g>
    </g>
</svg>